/vscmnt/brussel_pixiu_data/_data_brussel/112/vsc11236/PredSimResults/SUBJ10mtu3D/worker8.mot
version=1
nRows=9
nColumns=50
inDegrees=yes
endheader
                time	         pelvis_tilt	         pelvis_list	     pelvis_rotation	           pelvis_tx	           pelvis_ty	           pelvis_tz	       hip_flexion_r	     hip_adduction_r	      hip_rotation_r	        knee_angle_r	       ankle_angle_r	         mtp_angle_r	       hip_flexion_l	     hip_adduction_l	      hip_rotation_l	        knee_angle_l	       ankle_angle_l	         mtp_angle_l	    lumbar_extension	      lumbar_bending	     lumbar_rotation	 ercspn_r/activation	 intobl_r/activation	 extobl_r/activation	    abd_r/activation	    add_r/activation	hamstrings_r/activation	bifemsh_r/activation	glut_max_r/activation	iliopsoas_r/activation	rect_fem_r/activation	  vasti_r/activation	gastroc_r/activation	 soleus_r/activation	tib_ant_r/activation	 ercspn_l/activation	 intobl_l/activation	 extobl_l/activation	    abd_l/activation	    add_l/activation	hamstrings_l/activation	bifemsh_l/activation	glut_max_l/activation	iliopsoas_l/activation	rect_fem_l/activation	  vasti_l/activation	gastroc_l/activation	 soleus_l/activation	tib_ant_l/activation	
          0.00000000	         -5.36227182	         -0.73056255	          7.05925422	          0.00000000	          0.82275760	         -0.01202482	         31.85192705	         -1.50995816	         -5.58485436	         -6.46406501	          3.50692251	          0.26880506	        -15.05447479	         -0.00662239	          1.77762382	         -5.03885339	          7.95279727	         25.82213877	         -6.04472588	         -0.94001803	         -5.59956045	          0.11370926	          0.17534728	          0.00999999	          0.01182222	          0.10638982	          0.11319845	          0.27880266	          0.02341206	          0.07940270	          0.00999999	          0.00999999	          0.00999999	          0.00999999	          0.28899570	          0.06987880	          0.00999999	          0.00999999	          0.05929307	          0.00999999	          0.01593778	          0.22802296	          0.01373712	          0.34370295	          0.00999999	          0.00999999	          0.30374630	          0.22789107	          0.02309392	
          0.01093341	         -5.38309112	         -0.71219140	          7.16991724	          0.01534058	          0.82143789	         -0.01194948	         31.66132632	         -1.36010591	         -5.22273828	         -7.84008919	          3.20931231	          0.26585659	        -15.17832809	         -0.09195132	          1.47933464	         -6.68362130	          7.34222646	         27.46109637	         -5.86010909	         -0.52953070	         -5.88347756	          0.09618253	          0.14831990	          0.00999999	          0.00999999	          0.13915582	          0.09575046	          0.24466790	          0.06249154	          0.06716386	          0.00999999	          0.00999999	          0.01680466	          0.01182226	          0.30962841	          0.10251033	          0.00999999	          0.00999999	          0.05015386	          0.01000002	          0.01491467	          0.19287634	          0.01210437	          0.29072585	          0.00999999	          0.00999999	          0.27212339	          0.21963084	          0.01953431	
          0.02186683	         -5.39671590	         -0.70830854	          7.23965918	          0.03094839	          0.82029633	         -0.01180277	         31.33015955	         -1.22163409	         -4.82247480	         -9.13268233	          2.79085955	          0.25684063	        -15.18982456	         -0.19485596	          1.14743120	         -8.55552973	          6.61169067	         29.04813233	         -5.65581087	         -0.09378757	         -6.14478266	          0.09072900	          0.12545842	          0.00999999	          0.03916284	          0.11770686	          0.08342183	          0.20695569	          0.09505811	          0.05681147	          0.00999999	          0.00999999	          0.01421446	          0.01000002	          0.39607480	          0.11315597	          0.00999999	          0.00999999	          0.04242333	          0.00999999	          0.01261580	          0.16314709	          0.01023865	          0.24591444	          0.00999999	          0.00999999	          0.23017929	          0.20613723	          0.01652336	
          0.03280024	         -5.40501683	         -0.70323752	          7.26375355	          0.04663123	          0.81945738	         -0.01154652	         30.93515765	         -1.08017903	         -4.50234439	        -10.28448391	          2.24613537	          0.24415844	        -15.02475574	         -0.29854585	          0.77865502	        -10.73658584	          5.75217215	         30.50746107	         -5.45496479	          0.34168639	         -6.37755365	          0.10466318	          0.10612072	          0.00999999	          0.08826494	          0.14808563	          0.07056349	          0.17505631	          0.11521790	          0.04805476	          0.00999999	          0.00999999	          0.01202349	          0.00999999	          0.44737947	          0.13993940	          0.00999999	          0.00999999	          0.03588435	          0.00999999	          0.01067128	          0.13800020	          0.00999999	          0.20801009	          0.00999999	          0.00999999	          0.19470031	          0.19050061	          0.01397651	
          0.04373366	         -5.40750688	         -0.69636303	          7.24604978	          0.06225085	          0.81902317	         -0.01118841	         30.55399396	         -0.93341393	         -4.25999624	        -11.47099506	          1.77905469	          0.22910288	        -14.63737962	         -0.40412131	          0.36737473	        -13.28095544	          4.76827304	         31.71245234	         -5.26935678	          0.77434269	         -6.58010182	          0.10929782	          0.08976366	          0.00999999	          0.12613135	          0.19024313	          0.06158157	          0.14807377	          0.12606565	          0.04064778	          0.00999999	          0.00999999	          0.01017023	          0.00999999	          0.46833634	          0.17029021	          0.00999999	          0.00999999	          0.03035327	          0.01702832	          0.02562819	          0.11672936	          0.00999999	          0.17594819	          0.00999999	          0.00999999	          0.16468992	          0.16975124	          0.01182223	
          0.05466707	         -5.40432426	         -0.68980226	          7.19211219	          0.07771815	          0.81906463	         -0.01073872	         30.21923203	         -0.78220156	         -4.07648490	        -12.75982934	          1.49918220	          0.21361721	        -13.99361607	         -0.51807058	         -0.09431862	        -16.22572207	          3.68172644	         32.48380846	         -5.10265852	          1.20321254	         -6.75488977	          0.10947975	          0.07592782	          0.00999999	          0.15212289	          0.22032421	          0.05739578	          0.12525023	          0.12940350	          0.03438248	          0.00999999	          0.03405606	          0.00999999	          0.00999999	          0.46948624	          0.19302377	          0.00999999	          0.00999999	          0.02567473	          0.07414848	          0.02319827	          0.09873713	          0.00999999	          0.14882818	          0.00999999	          0.00999999	          0.13930522	          0.14358641	          0.00999999	
          0.06560049	         -5.39693124	         -0.67834238	          7.10263826	          0.09296679	          0.81965806	         -0.01021733	         29.88934100	         -0.62999463	         -3.93638602	        -14.06868319	          1.43887183	          0.19828806	        -13.06212097	         -0.63928344	         -0.62627182	        -19.60139761	          2.49861297	         32.63588418	         -4.95729528	          1.62109333	         -6.90112157	          0.10742090	          0.06422459	          0.00999999	          0.16646024	          0.24265974	          0.05700557	          0.10594462	          0.12304310	          0.02908289	          0.00999999	          0.05963419	          0.00999999	          0.00999999	          0.44931596	          0.20367049	          0.00999999	          0.00999999	          0.02171732	          0.13828949	          0.02243663	          0.08351815	          0.00999999	          0.12588835	          0.00999999	          0.00999999	          0.11783323	          0.12145453	          0.00999999	
          0.07653390	         -5.38712521	         -0.65643351	          6.97803055	          0.10796626	          0.82082065	         -0.00964861	         29.49949284	         -0.47696100	         -3.81417212	        -15.27852671	          1.60987423	          0.18756104	        -11.83104050	         -0.77142912	         -1.23193973	        -23.38438591	          1.12002667	         32.15272679	         -4.83297823	          2.02223478	         -7.01722029	          0.10184452	          0.05432525	          0.00999999	          0.17123895	          0.25243931	          0.05805983	          0.08961471	          0.11347227	          0.02460016	          0.00999999	          0.07772130	          0.00999999	          0.00999999	          0.41391920	          0.20371740	          0.00999999	          0.00999999	          0.01836989	          0.19674713	          0.02342580	          0.07064497	          0.00999999	          0.10648439	          0.00999999	          0.00999999	          0.09967085	          0.10273398	          0.00999999	
          0.08746732	         -5.37659612	         -0.61882176	          6.81834310	          0.12270064	          0.82250216	         -0.00905313	         29.00157548	         -0.32425463	         -3.68332134	        -16.29502060	          1.98911575	          0.19281420	        -10.31542030	         -0.91996688	         -1.89935230	        -27.48630753	         -0.58418845	         31.08763968	         -4.72993256	          2.40181883	         -7.10144826	          0.08870969	          0.04595175	          0.00999999	          0.17268280	          0.24747582	          0.06207216	          0.07580183	          0.09598210	          0.02080838	          0.00999999	          0.10110199	          0.00999999	          0.00999999	          0.36517520	          0.20069822	          0.00999999	          0.00999999	          0.01553842	          0.24966671	          0.01981511	          0.05975602	          0.00999999	          0.09007128	          0.00999999	          0.00999999	          0.08430795	          0.08689894	          0.00999999	
